<?xml version="1.0" encoding="UTF-8" standalone="no"?>
<!-- Created with Inkscape (http://www.inkscape.org/) -->

<svg
   xmlns:dc="http://purl.org/dc/elements/1.1/"
   xmlns:cc="http://creativecommons.org/ns#"
   xmlns:rdf="http://www.w3.org/1999/02/22-rdf-syntax-ns#"
   xmlns:svg="http://www.w3.org/2000/svg"
   xmlns="http://www.w3.org/2000/svg"
   xmlns:xlink="http://www.w3.org/1999/xlink"
   xmlns:sodipodi="http://sodipodi.sourceforge.net/DTD/sodipodi-0.dtd"
   xmlns:inkscape="http://www.inkscape.org/namespaces/inkscape"
   width="32"
   height="32"
   viewBox="0 0 32 32.000001"
   id="svg2"
   version="1.1"
   inkscape:version="0.91 r"
   sodipodi:docname="applications-development-32.svg">
  <defs
     id="defs4">
    <linearGradient
       inkscape:collect="always"
       id="linearGradient4182">
      <stop
         style="stop-color:#000000;stop-opacity:1;"
         offset="0"
         id="stop4184" />
      <stop
         style="stop-color:#000000;stop-opacity:0;"
         offset="1"
         id="stop4186" />
    </linearGradient>
    <linearGradient
       inkscape:collect="always"
       id="linearGradient4172">
      <stop
         style="stop-color:#000000;stop-opacity:0"
         offset="0"
         id="stop4174" />
      <stop
         id="stop4180"
         offset="0.48938689"
         style="stop-color:#000000;stop-opacity:1" />
      <stop
         style="stop-color:#000000;stop-opacity:0;"
         offset="1"
         id="stop4176" />
    </linearGradient>
    <linearGradient
       inkscape:collect="always"
       id="linearGradient4156">
      <stop
         style="stop-color:#ffffff;stop-opacity:1;"
         offset="0"
         id="stop4158" />
      <stop
         id="stop4164"
         offset="0.18988827"
         style="stop-color:#ffffff;stop-opacity:0.23529412" />
      <stop
         style="stop-color:#ffffff;stop-opacity:0.15686275"
         offset="0.77344263"
         id="stop4166" />
      <stop
         style="stop-color:#ffffff;stop-opacity:0.39215687"
         offset="1"
         id="stop4160" />
    </linearGradient>
    <radialGradient
       inkscape:collect="always"
       xlink:href="#linearGradient2867-449-88-871-390-598-476-591-434-148-57-177-7-4-9-9-2-2-0-8-0"
       id="radialGradient4149"
       cx="15.217034"
       cy="1030.327"
       fx="15.217034"
       fy="1030.327"
       r="12.5"
       gradientUnits="userSpaceOnUse"
       gradientTransform="matrix(-6.0922455e-7,2.8999855,-2.3150295,-4.8633789e-7,2401.2996,986.9837)" />
    <linearGradient
       inkscape:collect="always"
       xlink:href="#linearGradient4172"
       id="linearGradient4178"
       x1="-2.9041889"
       y1="1041.6772"
       x2="-2.9041889"
       y2="1044.7078"
       gradientUnits="userSpaceOnUse" />
    <radialGradient
       inkscape:collect="always"
       xlink:href="#linearGradient4182"
       id="radialGradient4188"
       cx="-11.429584"
       cy="1043.1627"
       fx="-11.429584"
       fy="1043.1627"
       r="2"
       gradientTransform="matrix(-2.0078125,0,0,-0.75,-34.378044,1825.5422)"
       gradientUnits="userSpaceOnUse" />
    <radialGradient
       inkscape:collect="always"
       xlink:href="#linearGradient4182"
       id="radialGradient4192"
       gradientUnits="userSpaceOnUse"
       gradientTransform="matrix(-2.0078125,0,0,-0.75,-31.523342,1825.5422)"
       cx="-11.429584"
       cy="1043.1627"
       fx="-11.429584"
       fy="1043.1627"
       r="2" />
    <linearGradient
       inkscape:collect="always"
       xlink:href="#linearGradient4156"
       id="linearGradient4173"
       x1="15.648655"
       y1="1025.2766"
       x2="15.648655"
       y2="1049.3748"
       gradientUnits="userSpaceOnUse" />
    <linearGradient
       id="linearGradient3767">
      <stop
         style="stop-color:#ffffff;stop-opacity:1;"
         offset="0"
         id="stop3769" />
      <stop
         id="stop3777"
         offset="0.18932098"
         style="stop-color:#ffffff;stop-opacity:0.23529412;" />
      <stop
         id="stop3775"
         offset="0.87385589"
         style="stop-color:#ffffff;stop-opacity:0.15686275;" />
      <stop
         style="stop-color:#ffffff;stop-opacity:0.392"
         offset="1"
         id="stop3771" />
    </linearGradient>
    <radialGradient
       cx="11.546201"
       cy="8.4497671"
       r="19.99999"
       fx="11.546201"
       fy="8.4497671"
       id="radialGradient5232"
       xlink:href="#linearGradient2867-449-88-871-390-598-476-591-434-148-57-177-7-4-9-9-2-2-0-8-0"
       gradientUnits="userSpaceOnUse"
       gradientTransform="matrix(1.942847e-8,2.3369903,-2.4722571,-4.3056281e-8,-20.109888,1007.9274)" />
    <linearGradient
       id="linearGradient2867-449-88-871-390-598-476-591-434-148-57-177-7-4-9-9-2-2-0-8-0">
      <stop
         id="stop3750-6-3-7-0-5-3-5-7"
         style="stop-color:#54bfec;stop-opacity:1"
         offset="0" />
      <stop
         id="stop3752-3-7-7-6-4-4-3-4"
         style="stop-color:#55c1ec;stop-opacity:1"
         offset="0.26238" />
      <stop
         id="stop3754-1-7-4-6-36-7-7-2-4"
         style="stop-color:#3689e6;stop-opacity:1"
         offset="0.704952" />
      <stop
         id="stop3756-7-5-7-1-4-3-1-7"
         style="stop-color:#2b63a0;stop-opacity:1"
         offset="1" />
    </linearGradient>
    <linearGradient
       x1="24"
       y1="44"
       x2="24"
       y2="3.8990016"
       id="linearGradient5234"
       xlink:href="#linearGradient3707-319-631-407-324-3-2-9"
       gradientUnits="userSpaceOnUse"
       gradientTransform="translate(-64.999998,1020.3622)" />
    <linearGradient
       id="linearGradient3707-319-631-407-324-3-2-9">
      <stop
         id="stop3760-3-9-5"
         style="stop-color:#1e74bc;stop-opacity:1"
         offset="0" />
      <stop
         id="stop3762-0-8-9"
         style="stop-color:#3fa8ea;stop-opacity:1"
         offset="1" />
    </linearGradient>
  </defs>
  <sodipodi:namedview
     id="base"
     pagecolor="#ffffff"
     bordercolor="#666666"
     borderopacity="1.0"
     inkscape:pageopacity="0.0"
     inkscape:pageshadow="2"
     inkscape:zoom="9.3272477"
     inkscape:cx="6.7813201"
     inkscape:cy="10.531811"
     inkscape:document-units="px"
     inkscape:current-layer="layer1"
     showgrid="true"
     units="px"
     inkscape:window-width="1366"
     inkscape:window-height="713"
     inkscape:window-x="0"
     inkscape:window-y="30"
     inkscape:window-maximized="1">
    <inkscape:grid
       type="xygrid"
       id="grid4303" />
  </sodipodi:namedview>
  <metadata
     id="metadata7">
    <rdf:RDF>
      <cc:Work
         rdf:about="">
        <dc:format>image/svg+xml</dc:format>
        <dc:type
           rdf:resource="http://purl.org/dc/dcmitype/StillImage" />
        <dc:title />
      </cc:Work>
    </rdf:RDF>
  </metadata>
  <g
     inkscape:label="Livello 1"
     inkscape:groupmode="layer"
     id="layer1"
     transform="translate(0,-1020.3622)">
    <g
       id="g4194"
       transform="translate(17.427351,6.6696951)"
       style="opacity:0.4">
      <rect
         y="1041.6925"
         x="-11.427351"
         height="3"
         width="20"
         id="rect4168"
         style="opacity:1;fill:url(#linearGradient4178);fill-opacity:1;stroke:none;stroke-width:3;stroke-linejoin:round;stroke-miterlimit:4;stroke-dasharray:none;stroke-opacity:1" />
      <rect
         style="opacity:1;fill:url(#radialGradient4188);fill-opacity:1;stroke:none;stroke-width:3;stroke-linejoin:round;stroke-miterlimit:4;stroke-dasharray:none;stroke-opacity:1"
         id="rect4170"
         width="4"
         height="3"
         x="-15.427351"
         y="1041.6925" />
      <rect
         transform="scale(-1,1)"
         y="1041.6925"
         x="-12.572649"
         height="3"
         width="4"
         id="rect4190"
         style="opacity:1;fill:url(#radialGradient4192);fill-opacity:1;stroke:none;stroke-width:3;stroke-linejoin:round;stroke-miterlimit:4;stroke-dasharray:none;stroke-opacity:1" />
    </g>
    <rect
       style="opacity:1;fill:url(#radialGradient4149);fill-opacity:1;stroke:none;stroke-width:3;stroke-linejoin:round;stroke-miterlimit:4;stroke-dasharray:none;stroke-opacity:1"
       id="rect4136"
       width="25"
       height="25"
       x="3.5000002"
       y="1024.8623"
       rx="2"
       ry="2" />
    <rect
       ry="2"
       rx="2"
       y="1024.8623"
       x="3.5000002"
       height="25"
       width="25"
       id="rect4160"
       style="opacity:0.6;fill:none;fill-opacity:1;stroke:#1e6eb4;stroke-width:1;stroke-linejoin:round;stroke-miterlimit:4;stroke-dasharray:none;stroke-opacity:1" />
    <rect
       ry="1"
       rx="1"
       y="1025.8621"
       x="4.5"
       height="23"
       width="23"
       id="rect4162"
       style="opacity:0.4;fill:none;fill-opacity:1;stroke:url(#linearGradient4173);stroke-width:1;stroke-linejoin:round;stroke-miterlimit:4;stroke-dasharray:none;stroke-opacity:1" />
    <path
       style="opacity:0.1;fill:#ffffff;fill-opacity:1;stroke:none;stroke-width:1;stroke-linecap:butt;stroke-linejoin:round;stroke-miterlimit:4;stroke-dasharray:none;stroke-opacity:1"
       d="M 7 7 L 7 9 L 6 9 L 6 10 L 7 10 L 7 13 L 6 13 L 6 14 L 7 14 L 7 17 L 6 17 L 6 18 L 7 18 L 7 21 L 6 21 L 6 22 L 7 22 L 7 25 L 6 25 L 6 26 L 7 26 L 7 27 L 8 27 L 8 26 L 11 26 L 11 27 L 12 27 L 12 26 L 15 26 L 15 27 L 16 27 L 16 26 L 19 26 L 19 27 L 20 27 L 20 26 L 23 26 L 23 27 L 24 27 L 24 26 L 26 26 L 26 25 L 24 25 L 24 22 L 26 22 L 26 21 L 24 21 L 24 18 L 26 18 L 26 17 L 24 17 L 24 14 L 26 14 L 26 13 L 24 13 L 24 10 L 26 10 L 26 9 L 24 9 L 24 7 L 23 7 L 23 9 L 20 9 L 20 7 L 19 7 L 19 9 L 16 9 L 16 7 L 15 7 L 15 9 L 12 9 L 12 7 L 11 7 L 11 9 L 8 9 L 8 7 L 7 7 z M 8 10 L 11 10 L 11 13 L 8 13 L 8 10 z M 12 10 L 15 10 L 15 13 L 12 13 L 12 10 z M 16 10 L 19 10 L 19 13 L 16 13 L 16 10 z M 20 10 L 23 10 L 23 13 L 20 13 L 20 10 z M 8 14 L 11 14 L 11 17 L 8 17 L 8 14 z M 12 14 L 15 14 L 15 17 L 12 17 L 12 14 z M 16 14 L 19 14 L 19 17 L 16 17 L 16 14 z M 20 14 L 23 14 L 23 17 L 20 17 L 20 14 z M 8 18 L 11 18 L 11 21 L 8 21 L 8 18 z M 12 18 L 15 18 L 15 21 L 12 21 L 12 18 z M 16 18 L 19 18 L 19 21 L 16 21 L 16 18 z M 20 18 L 23 18 L 23 21 L 20 21 L 20 18 z M 8 22 L 11 22 L 11 25 L 8 25 L 8 22 z M 12 22 L 15 22 L 15 25 L 12 25 L 12 22 z M 16 22 L 19 22 L 19 25 L 16 25 L 16 22 z M 20 22 L 23 22 L 23 25 L 20 25 L 20 22 z "
       transform="translate(0,1020.3622)"
       id="rect4198" />
    <path
       style="color:#000000;display:inline;overflow:visible;visibility:visible;opacity:0.07000002;fill:#000000;fill-opacity:1;fill-rule:nonzero;stroke:#000000;stroke-width:1;stroke-linejoin:round;stroke-miterlimit:4;stroke-dasharray:none;stroke-opacity:1;marker:none;enable-background:accumulate"
       id="path4222"
       inkscape:connector-curvature="0"
       d="m 19.920832,1028.8918 c -1.356968,-0.699 -3.493628,-0.8918 -6.764454,0.5908 0,0 6.45045,-0.492 3.901632,3.9227 l -2.155569,3.7336 -0.770798,-0.445 L 9,1045.5821 l 3.083192,1.7801 5.131644,-8.8883 -0.770799,-0.445 2.155567,-3.7336 0.139069,-0.2409 c 0.301918,-0.4974 1.227639,-1.7641 2.516077,-1.0203 l 0.399771,1.644 1.397071,0.8065 2.072126,-3.5889 -1.397071,-0.8066 -1.595763,0.4276 c 0,0 -0.46538,-1.7263 -2.210053,-2.6249 z" />
    <path
       d="m 19.920832,1028.8918 c -1.356968,-0.699 -3.493628,-0.8918 -6.764454,0.5908 0,0 6.45045,-0.492 3.901632,3.9227 l -2.155569,3.7336 -0.770798,-0.445 L 9,1045.5821 l 3.083192,1.7801 5.131644,-8.8883 -0.770799,-0.445 2.155567,-3.7336 0.139069,-0.2409 c 0.301918,-0.4974 1.227639,-1.7641 2.516077,-1.0203 l 0.399771,1.644 1.397071,0.8065 2.072126,-3.5889 -1.397071,-0.8066 -1.595763,0.4276 c 0,0 -0.46538,-1.7263 -2.210053,-2.6249 z"
       inkscape:connector-curvature="0"
       id="path4220"
       style="color:#000000;display:inline;overflow:visible;visibility:visible;opacity:0.15000012;fill:#000000;fill-opacity:1;fill-rule:nonzero;stroke:none;stroke-width:0.99999988;marker:none;enable-background:accumulate" />
    <path
       style="color:#000000;display:inline;overflow:visible;visibility:visible;fill:#ffffff;fill-opacity:1;fill-rule:nonzero;stroke:none;stroke-width:0.99999988;marker:none;enable-background:accumulate"
       id="rect4740"
       inkscape:connector-curvature="0"
       d="m 19.920832,1027.8917 c -1.356968,-0.699 -3.493628,-0.8918 -6.764454,0.5908 0,0 6.45045,-0.492 3.901632,3.9227 l -2.155569,3.7336 -0.770798,-0.445 L 9,1044.582 l 3.083192,1.7801 5.131644,-8.8883 -0.770799,-0.445 2.155567,-3.7336 0.139069,-0.2409 c 0.301918,-0.4974 1.227639,-1.7641 2.516077,-1.0203 l 0.399771,1.644 1.397071,0.8065 2.072126,-3.5889 -1.397071,-0.8066 -1.595763,0.4276 c 0,0 -0.46538,-1.7263 -2.210053,-2.6249 z" />
  </g>
</svg>
