<?xml version="1.0" encoding="UTF-8" standalone="no"?>
<!-- Created with Inkscape (http://www.inkscape.org/) -->

<svg
   xmlns:dc="http://purl.org/dc/elements/1.1/"
   xmlns:cc="http://creativecommons.org/ns#"
   xmlns:rdf="http://www.w3.org/1999/02/22-rdf-syntax-ns#"
   xmlns:svg="http://www.w3.org/2000/svg"
   xmlns="http://www.w3.org/2000/svg"
   xmlns:xlink="http://www.w3.org/1999/xlink"
   xmlns:sodipodi="http://sodipodi.sourceforge.net/DTD/sodipodi-0.dtd"
   xmlns:inkscape="http://www.inkscape.org/namespaces/inkscape"
   width="64"
   height="64"
   id="svg2"
   version="1.1"
   inkscape:version="0.91 r"
   sodipodi:docname="inkscape.svg">
  <defs
     id="defs4">
    <linearGradient
       inkscape:collect="always"
       id="linearGradient3801">
      <stop
         style="stop-color:#000000;stop-opacity:1;"
         offset="0"
         id="stop3803" />
      <stop
         style="stop-color:#000000;stop-opacity:0;"
         offset="1"
         id="stop3805" />
    </linearGradient>
    <linearGradient
       id="linearGradient3789">
      <stop
         style="stop-color:#000000;stop-opacity:0;"
         offset="0"
         id="stop3791" />
      <stop
         id="stop3797"
         offset="0.5"
         style="stop-color:#000000;stop-opacity:1;" />
      <stop
         style="stop-color:#000000;stop-opacity:0;"
         offset="1"
         id="stop3793" />
    </linearGradient>
    <linearGradient
       id="linearGradient3779">
      <stop
         style="stop-color:#fac864;stop-opacity:1"
         offset="0"
         id="stop3781" />
      <stop
         style="stop-color:#f0960a;stop-opacity:1"
         offset="1"
         id="stop3783" />
    </linearGradient>
    <linearGradient
       id="linearGradient3767">
      <stop
         style="stop-color:#ffffff;stop-opacity:1;"
         offset="0"
         id="stop3769" />
      <stop
         id="stop3777"
         offset="0.08994294"
         style="stop-color:#ffffff;stop-opacity:0.23529412;" />
      <stop
         id="stop3775"
         offset="0.87385589"
         style="stop-color:#ffffff;stop-opacity:0.15686275;" />
      <stop
         style="stop-color:#ffffff;stop-opacity:0.39215687;"
         offset="1"
         id="stop3771" />
    </linearGradient>
    <linearGradient
       inkscape:collect="always"
       xlink:href="#linearGradient3767"
       id="linearGradient3773"
       x1="15.480333"
       y1="993.34076"
       x2="15.480333"
       y2="1047.38"
       gradientUnits="userSpaceOnUse" />
    <radialGradient
       inkscape:collect="always"
       xlink:href="#linearGradient3779"
       id="radialGradient3785"
       cx="26.493498"
       cy="993.38928"
       fx="26.493498"
       fy="993.38928"
       r="27"
       gradientUnits="userSpaceOnUse"
       gradientTransform="matrix(3.7698245e-7,2.6531641,-1.4792287,2.1018047e-7,1501.5811,906.43495)" />
    <linearGradient
       inkscape:collect="always"
       xlink:href="#linearGradient3789"
       id="linearGradient3795"
       x1="31.907684"
       y1="1044.7737"
       x2="31.907684"
       y2="1049.8818"
       gradientUnits="userSpaceOnUse" />
    <radialGradient
       inkscape:collect="always"
       xlink:href="#linearGradient3801"
       id="radialGradient3807"
       cx="10.0625"
       cy="1047.4336"
       fx="10.0625"
       fy="1047.4336"
       r="4"
       gradientTransform="matrix(-2.0268164,2.1791036e-8,0,-0.58132218,30.457347,1656.3032)"
       gradientUnits="userSpaceOnUse" />
    <radialGradient
       inkscape:collect="always"
       xlink:href="#linearGradient3801"
       id="radialGradient3811"
       gradientUnits="userSpaceOnUse"
       gradientTransform="matrix(-2.0268164,2.1791036e-8,0,-0.58132218,-33.542653,1656.3032)"
       cx="10.0625"
       cy="1047.4336"
       fx="10.0625"
       fy="1047.4336"
       r="4" />
  </defs>
  <sodipodi:namedview
     id="base"
     pagecolor="#ffffff"
     bordercolor="#666666"
     borderopacity="1.0"
     inkscape:pageopacity="0.0"
     inkscape:pageshadow="2"
     inkscape:zoom="3.959798"
     inkscape:cx="-30.814321"
     inkscape:cy="22.947776"
     inkscape:document-units="px"
     inkscape:current-layer="layer1"
     showgrid="false"
     showguides="true"
     inkscape:guide-bbox="true"
     inkscape:window-width="1366"
     inkscape:window-height="713"
     inkscape:window-x="0"
     inkscape:window-y="30"
     inkscape:window-maximized="1">
    <inkscape:grid
       type="xygrid"
       id="grid2985"
       empspacing="5"
       visible="true"
       enabled="true"
       snapvisiblegridlinesonly="true" />
    <sodipodi:guide
       orientation="0,1"
       position="11,4"
       id="guide2987" />
    <sodipodi:guide
       orientation="0,1"
       position="12,60"
       id="guide2989" />
    <sodipodi:guide
       orientation="0,1"
       position="10,32"
       id="guide2991" />
  </sodipodi:namedview>
  <metadata
     id="metadata7">
    <rdf:RDF>
      <cc:Work
         rdf:about="">
        <dc:format>image/svg+xml</dc:format>
        <dc:type
           rdf:resource="http://purl.org/dc/dcmitype/StillImage" />
        <dc:title />
      </cc:Work>
    </rdf:RDF>
  </metadata>
  <g
     inkscape:label="Livello 1"
     inkscape:groupmode="layer"
     id="layer1"
     transform="translate(0,-988.36218)">
    <g
       id="g3832">
      <rect
         transform="scale(-1,1)"
         style="opacity:0.40000001;fill:url(#radialGradient3811);fill-opacity:1;stroke:none"
         id="rect3809"
         width="8"
         height="5"
         x="-62"
         y="1044.8622" />
      <rect
         y="1044.8622"
         x="2"
         height="5"
         width="8"
         id="rect3799"
         style="opacity:0.40000001;fill:url(#radialGradient3807);fill-opacity:1;stroke:none" />
      <rect
         y="1044.8622"
         x="10"
         height="5"
         width="44"
         id="rect3787"
         style="opacity:0.40000001;fill:url(#linearGradient3795);fill-opacity:1;stroke:none" />
    </g>
    <rect
       style="fill:url(#radialGradient3785);fill-opacity:1;stroke:none"
       id="rect2993"
       width="55"
       height="55"
       x="4.5"
       y="992.86224"
       rx="3"
       ry="3" />
    <rect
       ry="3"
       rx="3"
       y="992.86218"
       x="4.5"
       height="55"
       width="55"
       id="rect3763"
       style="fill:none;fill-opacity:1;stroke:#b43200;stroke-opacity:1;opacity:0.60000005" />
    <rect
       ry="2"
       rx="2"
       y="993.86224"
       x="5.5"
       height="53"
       width="53"
       id="rect3765"
       style="fill:none;fill-opacity:1;stroke:url(#linearGradient3773);stroke-opacity:1;opacity:0.3" />
    <path
       inkscape:connector-curvature="0"
       id="path4181"
       d="m 31.642513,1000.3622 c -1.298664,0 -2.585126,0.4761 -3.51707,1.4427 l -15.50382,16.0769 c -5.2385032,6.5737 3.564885,5.8087 7.338826,7.7023 1.353772,1.4021 -5.188697,2.4365 -3.834939,3.84 1.353772,1.4021 8.185856,2.7019 9.541938,4.1042 1.353765,1.4023 -2.770268,2.889 -1.416496,4.2912 1.353773,1.4022 4.484975,0.074 5.071261,3.3115 0.417785,2.3132 5.642021,0.9937 8.19722,-0.9009 1.353772,-1.4033 -2.590086,-1.2711 -1.236321,-2.6733 3.366544,-3.4886 6.500502,-1.2677 7.652301,-4.7632 0.568977,-1.7273 -4.955183,-2.6635 -3.599101,-4.0657 3.895118,-2.305 17.358153,-3.8045 10.970153,-10.2775 l -16.070711,-16.6455 c -0.982723,-0.956 -2.294578,-1.4401 -3.593241,-1.4427 z m 0.139159,3.0399 c 0.927181,0 1.851244,0.3561 2.516587,1.039 l 6.133267,6.3129 c 0.581674,0.6024 0.574483,1.7692 0.249022,2.1048 l -3.045393,-2.4684 -0.599118,3.6559 -2.544419,-1.3612 -4.075173,2.6095 -1.350578,-5.501 -2.188465,3.8386 -3.347148,0 c -1.364153,0 -1.525154,-1.7543 -0.285644,-3.0103 2.165111,-2.3681 4.651116,-4.7821 6.001431,-6.1808 0.678615,-0.7029 1.60845,-1.044 2.535631,-1.039 z m 17.000881,27.4707 c -1.260864,0.044 -2.504869,0.6969 -2.847639,1.9208 0,0.7976 5.799283,1.32 5.799283,-0.1886 -0.413173,-1.2116 -1.690778,-1.7762 -2.951644,-1.7322 z m -26.828463,3.46 c -1.757439,0.094 -3.642674,1.382 -2.143054,2.6986 1.373384,1.2033 3.494922,-0.2993 4.130836,-1.9787 -0.415842,-0.5599 -1.188946,-0.7629 -1.987782,-0.7199 z m 23.254265,0.099 c -1.770403,1.6093 0.198829,3.241 1.943836,2.2013 0.388941,-0.3999 -0.01074,-1.8013 -1.943836,-2.2013 z"
       style="display:inline;fill:#ffffff;fill-opacity:1;opacity:0.2" />
    <path
       style="display:inline;fill:#141414;fill-opacity:1;opacity:0.74999999"
       d="m 31.642513,999.36227 c -1.298664,0 -2.585126,0.47615 -3.51707,1.44273 l -15.50382,16.0769 c -5.2385032,6.5737 3.564885,5.8087 7.338826,7.7023 1.353772,1.4021 -5.188697,2.4365 -3.834939,3.84 1.353772,1.4021 8.185856,2.7019 9.541938,4.1042 1.353765,1.4023 -2.770268,2.889 -1.416496,4.2912 1.353773,1.4022 4.484975,0.074 5.071261,3.3115 0.417785,2.3132 5.642021,0.9937 8.19722,-0.9009 1.353772,-1.4033 -2.590086,-1.2711 -1.236321,-2.6733 3.366544,-3.4886 6.500502,-1.2677 7.652301,-4.7632 0.568977,-1.7273 -4.955183,-2.6635 -3.599101,-4.0657 3.895118,-2.305 17.358153,-3.8045 10.970153,-10.2775 L 35.235754,1000.805 c -0.982723,-0.95604 -2.294578,-1.4401 -3.593241,-1.44273 z m 0.139159,3.03993 c 0.927181,0 1.851244,0.3561 2.516587,1.039 l 6.133267,6.3129 c 0.581674,0.6024 0.574483,1.7692 0.249022,2.1048 l -3.045393,-2.4684 -0.599118,3.6559 -2.544419,-1.3612 -4.075173,2.6095 -1.350578,-5.501 -2.188465,3.8386 -3.347148,0 c -1.364153,0 -1.525154,-1.7543 -0.285644,-3.0103 2.165111,-2.3681 4.651116,-4.7821 6.001431,-6.1808 0.678615,-0.7029 1.60845,-1.044 2.535631,-1.039 z m 17.000881,27.4707 c -1.260864,0.044 -2.504869,0.6969 -2.847639,1.9208 0,0.7976 5.799283,1.32 5.799283,-0.1886 -0.413173,-1.2116 -1.690778,-1.7762 -2.951644,-1.7322 z m -26.828463,3.46 c -1.757439,0.094 -3.642674,1.382 -2.143054,2.6986 1.373384,1.2033 3.494922,-0.2993 4.130836,-1.9787 -0.415842,-0.5599 -1.188946,-0.7629 -1.987782,-0.7199 z m 23.254265,0.099 c -1.770403,1.6093 0.198829,3.241 1.943836,2.2013 0.388941,-0.3999 -0.01074,-1.8013 -1.943836,-2.2013 z"
       id="path4236"
       inkscape:connector-curvature="0" />
  </g>
</svg>
